<svg width="217" height="41" viewBox="0 0 217 41" fill="none" xmlns="http://www.w3.org/2000/svg">
<path d="M58.5781 11.8438H56.7344V4.59375C56.7344 4 56.7708 3.27344 56.8438 2.41406H56.8125C56.6979 2.90365 56.5964 3.25521 56.5078 3.46875L53.1641 11.8438H51.8828L48.5312 3.53125C48.4375 3.28646 48.3385 2.91406 48.2344 2.41406H48.2031C48.2448 2.86198 48.2656 3.59375 48.2656 4.60938V11.8438H46.5469V0.640625H49.1641L52.1094 8.10156C52.3333 8.67448 52.4792 9.10156 52.5469 9.38281H52.5859C52.7786 8.79427 52.9349 8.35677 53.0547 8.07031L56.0547 0.640625H58.5781V11.8438ZM68.1172 11.8438H66.3047V10.5781H66.2734C65.7474 11.5469 64.9297 12.0312 63.8203 12.0312C61.9297 12.0312 60.9844 10.8958 60.9844 8.625V3.84375H62.7969V8.4375C62.7969 9.875 63.3516 10.5938 64.4609 10.5938C64.9974 10.5938 65.4375 10.3958 65.7812 10C66.1302 9.60417 66.3047 9.08594 66.3047 8.44531V3.84375H68.1172V11.8438ZM77.6094 11.8438H75.7969V7.33594C75.7969 5.84115 75.2682 5.09375 74.2109 5.09375C73.6589 5.09375 73.2031 5.30208 72.8438 5.71875C72.4844 6.13021 72.3047 6.65104 72.3047 7.28125V11.8438H70.4844V3.84375H72.3047V5.17188H72.3359C72.9349 4.16146 73.7995 3.65625 74.9297 3.65625C75.7995 3.65625 76.4635 3.9401 76.9219 4.50781C77.3802 5.07031 77.6094 5.88542 77.6094 6.95312V11.8438ZM80.7422 2.16406C80.4453 2.16406 80.1901 2.06771 79.9766 1.875C79.7682 1.68229 79.6641 1.4375 79.6641 1.14062C79.6641 0.84375 79.7682 0.596354 79.9766 0.398438C80.1901 0.200521 80.4453 0.101562 80.7422 0.101562C81.0495 0.101562 81.3099 0.200521 81.5234 0.398438C81.737 0.596354 81.8438 0.84375 81.8438 1.14062C81.8438 1.42188 81.737 1.66406 81.5234 1.86719C81.3099 2.0651 81.0495 2.16406 80.7422 2.16406ZM81.6406 11.8438H79.8281V3.84375H81.6406V11.8438ZM89.7422 11.4766C89.1016 11.8464 88.3438 12.0312 87.4688 12.0312C86.2812 12.0312 85.3229 11.6615 84.5938 10.9219C83.8646 10.1771 83.5 9.21354 83.5 8.03125C83.5 6.71354 83.8906 5.65625 84.6719 4.85938C85.4583 4.05729 86.5078 3.65625 87.8203 3.65625C88.5495 3.65625 89.1927 3.78385 89.75 4.03906V5.72656C89.1927 5.3099 88.599 5.10156 87.9688 5.10156C87.2031 5.10156 86.5755 5.36198 86.0859 5.88281C85.5964 6.39844 85.3516 7.07552 85.3516 7.91406C85.3516 8.74219 85.5807 9.39583 86.0391 9.875C86.5026 10.3542 87.1224 10.5938 87.8984 10.5938C88.5495 10.5938 89.1641 10.362 89.7422 9.89844V11.4766ZM92.4609 2.16406C92.1641 2.16406 91.9089 2.06771 91.6953 1.875C91.487 1.68229 91.3828 1.4375 91.3828 1.14062C91.3828 0.84375 91.487 0.596354 91.6953 0.398438C91.9089 0.200521 92.1641 0.101562 92.4609 0.101562C92.7682 0.101562 93.0286 0.200521 93.2422 0.398438C93.4557 0.596354 93.5625 0.84375 93.5625 1.14062C93.5625 1.42188 93.4557 1.66406 93.2422 1.86719C93.0286 2.0651 92.7682 2.16406 92.4609 2.16406ZM93.3594 11.8438H91.5469V3.84375H93.3594V11.8438ZM97.5781 10.6641H97.5469V15.5234H95.7344V3.84375H97.5469V5.25H97.5781C98.1979 4.1875 99.1042 3.65625 100.297 3.65625C101.312 3.65625 102.104 4.01302 102.672 4.72656C103.24 5.4401 103.523 6.39844 103.523 7.60156C103.523 8.9349 103.203 10.0026 102.562 10.8047C101.922 11.6068 101.047 12.0078 99.9375 12.0078C98.9167 12.0078 98.1302 11.5599 97.5781 10.6641ZM97.5312 7.50781V8.5C97.5312 9.08333 97.7161 9.57812 98.0859 9.98438C98.4609 10.3906 98.9349 10.5938 99.5078 10.5938C100.18 10.5938 100.706 10.3333 101.086 9.8125C101.471 9.28646 101.664 8.55469 101.664 7.61719C101.664 6.83073 101.484 6.21615 101.125 5.77344C100.771 5.32552 100.289 5.10156 99.6797 5.10156C99.0339 5.10156 98.513 5.33073 98.1172 5.78906C97.7266 6.2474 97.5312 6.82031 97.5312 7.50781ZM111.328 11.8438H109.57V10.5938H109.539C108.987 11.5521 108.177 12.0312 107.109 12.0312C106.323 12.0312 105.706 11.8177 105.258 11.3906C104.815 10.9635 104.594 10.3984 104.594 9.69531C104.594 8.1849 105.464 7.30469 107.203 7.05469L109.578 6.71875C109.578 5.57812 109.036 5.00781 107.953 5.00781C107 5.00781 106.141 5.33594 105.375 5.99219V4.40625C106.219 3.90625 107.193 3.65625 108.297 3.65625C110.318 3.65625 111.328 4.65104 111.328 6.64062V11.8438ZM109.578 7.91406L107.898 8.14844C107.378 8.21615 106.984 8.34375 106.719 8.53125C106.458 8.71354 106.328 9.03646 106.328 9.5C106.328 9.83854 106.448 10.1172 106.688 10.3359C106.932 10.5495 107.258 10.6562 107.664 10.6562C108.216 10.6562 108.672 10.4635 109.031 10.0781C109.396 9.6875 109.578 9.19792 109.578 8.60938V7.91406ZM115.367 11.8438H113.547V0H115.367V11.8438ZM118.648 2.16406C118.352 2.16406 118.096 2.06771 117.883 1.875C117.674 1.68229 117.57 1.4375 117.57 1.14062C117.57 0.84375 117.674 0.596354 117.883 0.398438C118.096 0.200521 118.352 0.101562 118.648 0.101562C118.956 0.101562 119.216 0.200521 119.43 0.398438C119.643 0.596354 119.75 0.84375 119.75 1.14062C119.75 1.42188 119.643 1.66406 119.43 1.86719C119.216 2.0651 118.956 2.16406 118.648 2.16406ZM119.547 11.8438H117.734V3.84375H119.547V11.8438ZM129.195 11.8438H127.383V10.4844H127.352C126.768 11.5156 125.87 12.0312 124.656 12.0312C123.672 12.0312 122.883 11.6745 122.289 10.9609C121.701 10.2422 121.406 9.26562 121.406 8.03125C121.406 6.70833 121.732 5.64844 122.383 4.85156C123.039 4.05469 123.911 3.65625 125 3.65625C126.078 3.65625 126.862 4.08854 127.352 4.95312H127.383V0H129.195V11.8438ZM127.406 8.1875V7.14062C127.406 6.57292 127.221 6.09115 126.852 5.69531C126.482 5.29948 126.01 5.10156 125.438 5.10156C124.76 5.10156 124.227 5.35417 123.836 5.85938C123.451 6.36458 123.258 7.0651 123.258 7.96094C123.258 8.77344 123.443 9.41667 123.812 9.89062C124.188 10.3594 124.69 10.5938 125.32 10.5938C125.94 10.5938 126.443 10.3672 126.828 9.91406C127.214 9.45573 127.406 8.88021 127.406 8.1875ZM137.703 11.8438H135.945V10.5938H135.914C135.362 11.5521 134.552 12.0312 133.484 12.0312C132.698 12.0312 132.081 11.8177 131.633 11.3906C131.19 10.9635 130.969 10.3984 130.969 9.69531C130.969 8.1849 131.839 7.30469 133.578 7.05469L135.953 6.71875C135.953 5.57812 135.411 5.00781 134.328 5.00781C133.375 5.00781 132.516 5.33594 131.75 5.99219V4.40625C132.594 3.90625 133.568 3.65625 134.672 3.65625C136.693 3.65625 137.703 4.65104 137.703 6.64062V11.8438ZM135.953 7.91406L134.273 8.14844C133.753 8.21615 133.359 8.34375 133.094 8.53125C132.833 8.71354 132.703 9.03646 132.703 9.5C132.703 9.83854 132.823 10.1172 133.062 10.3359C133.307 10.5495 133.633 10.6562 134.039 10.6562C134.591 10.6562 135.047 10.4635 135.406 10.0781C135.771 9.6875 135.953 9.19792 135.953 8.60938V7.91406ZM147.195 11.8438H145.383V10.4844H145.352C144.768 11.5156 143.87 12.0312 142.656 12.0312C141.672 12.0312 140.883 11.6745 140.289 10.9609C139.701 10.2422 139.406 9.26562 139.406 8.03125C139.406 6.70833 139.732 5.64844 140.383 4.85156C141.039 4.05469 141.911 3.65625 143 3.65625C144.078 3.65625 144.862 4.08854 145.352 4.95312H145.383V0H147.195V11.8438ZM145.406 8.1875V7.14062C145.406 6.57292 145.221 6.09115 144.852 5.69531C144.482 5.29948 144.01 5.10156 143.438 5.10156C142.76 5.10156 142.227 5.35417 141.836 5.85938C141.451 6.36458 141.258 7.0651 141.258 7.96094C141.258 8.77344 141.443 9.41667 141.812 9.89062C142.188 10.3594 142.69 10.5938 143.32 10.5938C143.94 10.5938 144.443 10.3672 144.828 9.91406C145.214 9.45573 145.406 8.88021 145.406 8.1875ZM161.242 11.8438H159.43V10.4844H159.398C158.815 11.5156 157.917 12.0312 156.703 12.0312C155.719 12.0312 154.93 11.6745 154.336 10.9609C153.747 10.2422 153.453 9.26562 153.453 8.03125C153.453 6.70833 153.779 5.64844 154.43 4.85156C155.086 4.05469 155.958 3.65625 157.047 3.65625C158.125 3.65625 158.909 4.08854 159.398 4.95312H159.43V0H161.242V11.8438ZM159.453 8.1875V7.14062C159.453 6.57292 159.268 6.09115 158.898 5.69531C158.529 5.29948 158.057 5.10156 157.484 5.10156C156.807 5.10156 156.273 5.35417 155.883 5.85938C155.497 6.36458 155.305 7.0651 155.305 7.96094C155.305 8.77344 155.49 9.41667 155.859 9.89062C156.234 10.3594 156.737 10.5938 157.367 10.5938C157.987 10.5938 158.49 10.3672 158.875 9.91406C159.26 9.45573 159.453 8.88021 159.453 8.1875ZM170.383 8.33594H164.93C164.951 9.07552 165.177 9.64583 165.609 10.0469C166.047 10.4479 166.646 10.6484 167.406 10.6484C168.26 10.6484 169.044 10.3932 169.758 9.88281V11.3438C169.029 11.8021 168.065 12.0312 166.867 12.0312C165.69 12.0312 164.766 11.6693 164.094 10.9453C163.427 10.2161 163.094 9.19271 163.094 7.875C163.094 6.63021 163.461 5.61719 164.195 4.83594C164.935 4.04948 165.852 3.65625 166.945 3.65625C168.039 3.65625 168.885 4.00781 169.484 4.71094C170.083 5.41406 170.383 6.39062 170.383 7.64062V8.33594ZM168.633 7.05469C168.628 6.40365 168.474 5.89844 168.172 5.53906C167.87 5.17448 167.453 4.99219 166.922 4.99219C166.401 4.99219 165.958 5.18229 165.594 5.5625C165.234 5.94271 165.013 6.4401 164.93 7.05469H168.633Z" fill="white"/>
<path d="M18.3125 24.8281C18.3125 26.3594 17.9219 27.7188 17.1406 28.9062C16.3698 30.0938 15.2656 31.0156 13.8281 31.6719C12.3906 32.3177 10.7188 32.6406 8.8125 32.6406H6.75V39.8438H0V17.4375H9.1875C12.3438 17.4375 14.651 18.0365 16.1094 19.2344C17.5781 20.4323 18.3125 22.2969 18.3125 24.8281ZM11.1719 25.0625C11.1719 24.1458 10.9062 23.4531 10.375 22.9844C9.84375 22.5156 9.0625 22.2812 8.03125 22.2812H6.75V27.8125H8.26562C10.2031 27.8125 11.1719 26.8958 11.1719 25.0625ZM30.5781 39.8438V37.375H30.5156C29.9635 38.1354 29.4635 38.6927 29.0156 39.0469C28.5781 39.401 28.0781 39.6875 27.5156 39.9062C26.9635 40.125 26.3177 40.2344 25.5781 40.2344C23.8281 40.2344 22.4948 39.6667 21.5781 38.5312C20.6615 37.3958 20.2031 35.7188 20.2031 33.5V23.8438H26.8594V33C26.8594 34.5729 27.4479 35.3594 28.625 35.3594C29.2708 35.3594 29.7552 35.1458 30.0781 34.7188C30.4115 34.2917 30.5781 33.6875 30.5781 32.9062V23.8438H37.2344V39.8438H30.5781ZM46.1562 33.7344C46.2708 34.4219 46.6667 34.9635 47.3438 35.3594C48.0208 35.7448 48.9167 35.9375 50.0312 35.9375C51.5833 35.9375 53.0521 35.6406 54.4375 35.0469V39.2656C52.8229 39.9115 50.8646 40.2344 48.5625 40.2344C45.7708 40.2344 43.599 39.5208 42.0469 38.0938C40.4948 36.6667 39.7188 34.7031 39.7188 32.2031C39.7188 30.4844 40.0573 28.9688 40.7344 27.6562C41.4219 26.3438 42.4323 25.3177 43.7656 24.5781C45.1094 23.8281 46.5885 23.4531 48.2031 23.4531C49.8594 23.4531 51.276 23.776 52.4531 24.4219C53.6302 25.0677 54.5208 25.974 55.125 27.1406C55.7396 28.3073 56.0469 29.6719 56.0469 31.2344V33.7344H46.1562ZM50.1562 30.25C50.1562 28.4062 49.4948 27.4844 48.1719 27.4844C47.6198 27.4844 47.1562 27.7396 46.7812 28.25C46.4062 28.75 46.1875 29.4167 46.125 30.25H50.1562ZM68.7344 39.8438V31.1094C68.7344 30.1198 68.5833 29.4115 68.2812 28.9844C67.9896 28.5469 67.5104 28.3281 66.8438 28.3281C66.2708 28.3281 65.8229 28.5521 65.5 29C65.1771 29.4479 65.0156 30.0208 65.0156 30.7188V39.8438H58.3594V23.8438H65.0156V26.3438H65.0781C65.6094 25.4271 66.3229 24.7188 67.2188 24.2188C68.1146 23.7083 69.0885 23.4531 70.1406 23.4531C73.6406 23.4531 75.3906 25.6615 75.3906 30.0781V39.8438H68.7344ZM89.6562 39.625C89.3542 39.7708 88.8594 39.9062 88.1719 40.0312C87.4844 40.1667 86.6562 40.2344 85.6875 40.2344C83.8333 40.2344 82.3802 39.724 81.3281 38.7031C80.2865 37.6823 79.7656 36.2292 79.7656 34.3438V28.4531H77.25V23.8438H79.7656V20.7031L86.3281 18.8906V23.8438H89.6562V28.4531H86.3281V33.25C86.3281 34.6562 86.8854 35.3594 88 35.3594C88.5208 35.3594 89.0729 35.2448 89.6562 35.0156V39.625ZM97.4688 33.7344C97.5833 34.4219 97.9792 34.9635 98.6562 35.3594C99.3333 35.7448 100.229 35.9375 101.344 35.9375C102.896 35.9375 104.365 35.6406 105.75 35.0469V39.2656C104.135 39.9115 102.177 40.2344 99.875 40.2344C97.0833 40.2344 94.9115 39.5208 93.3594 38.0938C91.8073 36.6667 91.0312 34.7031 91.0312 32.2031C91.0312 30.4844 91.3698 28.9688 92.0469 27.6562C92.7344 26.3438 93.7448 25.3177 95.0781 24.5781C96.4219 23.8281 97.901 23.4531 99.5156 23.4531C101.172 23.4531 102.589 23.776 103.766 24.4219C104.943 25.0677 105.833 25.974 106.438 27.1406C107.052 28.3073 107.359 29.6719 107.359 31.2344V33.7344H97.4688ZM101.469 30.25C101.469 28.4062 100.807 27.4844 99.4844 27.4844C98.9323 27.4844 98.4688 27.7396 98.0938 28.25C97.7188 28.75 97.5 29.4167 97.4375 30.25H101.469ZM137.5 24.8281C137.5 26.3594 137.109 27.7188 136.328 28.9062C135.557 30.0938 134.453 31.0156 133.016 31.6719C131.578 32.3177 129.906 32.6406 128 32.6406H125.938V39.8438H119.188V17.4375H128.375C131.531 17.4375 133.839 18.0365 135.297 19.2344C136.766 20.4323 137.5 22.2969 137.5 24.8281ZM130.359 25.0625C130.359 24.1458 130.094 23.4531 129.562 22.9844C129.031 22.5156 128.25 22.2812 127.219 22.2812H125.938V27.8125H127.453C129.391 27.8125 130.359 26.8958 130.359 25.0625ZM146.625 19.5312C146.625 20.4688 146.281 21.2292 145.594 21.8125C144.917 22.3958 144.021 22.6875 142.906 22.6875C141.823 22.6875 140.932 22.3854 140.234 21.7812C139.547 21.1771 139.203 20.4271 139.203 19.5312C139.203 18.6146 139.536 17.875 140.203 17.3125C140.88 16.7396 141.781 16.4531 142.906 16.4531C144.021 16.4531 144.917 16.7396 145.594 17.3125C146.281 17.875 146.625 18.6146 146.625 19.5312ZM139.578 39.8438V23.8438H146.234V39.8438H139.578ZM155.188 33.7344C155.302 34.4219 155.698 34.9635 156.375 35.3594C157.052 35.7448 157.948 35.9375 159.062 35.9375C160.615 35.9375 162.083 35.6406 163.469 35.0469V39.2656C161.854 39.9115 159.896 40.2344 157.594 40.2344C154.802 40.2344 152.63 39.5208 151.078 38.0938C149.526 36.6667 148.75 34.7031 148.75 32.2031C148.75 30.4844 149.089 28.9688 149.766 27.6562C150.453 26.3438 151.464 25.3177 152.797 24.5781C154.141 23.8281 155.62 23.4531 157.234 23.4531C158.891 23.4531 160.307 23.776 161.484 24.4219C162.661 25.0677 163.552 25.974 164.156 27.1406C164.771 28.3073 165.078 29.6719 165.078 31.2344V33.7344H155.188ZM159.188 30.25C159.188 28.4062 158.526 27.4844 157.203 27.4844C156.651 27.4844 156.188 27.7396 155.812 28.25C155.438 28.75 155.219 29.4167 155.156 30.25H159.188ZM178.078 39.8438V37.9844H178.016C177.484 38.6823 176.792 39.2344 175.938 39.6406C175.083 40.0365 174.24 40.2344 173.406 40.2344C172.042 40.2344 170.839 39.901 169.797 39.2344C168.755 38.5573 167.974 37.6146 167.453 36.4062C166.943 35.1979 166.688 33.7708 166.688 32.125C166.688 30.4271 166.995 28.9219 167.609 27.6094C168.224 26.2969 169.089 25.276 170.203 24.5469C171.318 23.8177 172.568 23.4531 173.953 23.4531C174.609 23.4531 175.214 23.5469 175.766 23.7344C176.328 23.9219 176.812 24.1771 177.219 24.5C177.635 24.8125 177.901 25.125 178.016 25.4375H178.078V16.1562H184.734V39.8438H178.078ZM178.219 31.3594C178.219 30.401 178.005 29.6562 177.578 29.125C177.161 28.5938 176.594 28.3281 175.875 28.3281C175.156 28.3281 174.568 28.6615 174.109 29.3281C173.661 29.9844 173.438 30.8646 173.438 31.9688C173.438 34.2292 174.219 35.3594 175.781 35.3594C176.521 35.3594 177.109 35.0573 177.547 34.4531C177.995 33.8385 178.219 32.9479 178.219 31.7812V31.3594ZM199.984 29.5469C199.734 29.4323 199.396 29.3281 198.969 29.2344C198.542 29.1406 198.188 29.0938 197.906 29.0938C195.708 29.0938 194.609 30.3646 194.609 32.9062V39.8438H187.953V23.8438H194.609V26.6562H194.672C195.078 25.6458 195.656 24.8802 196.406 24.3594C197.156 23.8281 198.031 23.5625 199.031 23.5625C199.396 23.5625 199.714 23.625 199.984 23.75V29.5469ZM210.797 39.8438V37.4062H210.734C209.672 39.2917 208.047 40.2344 205.859 40.2344C204.349 40.2344 203.167 39.7865 202.312 38.8906C201.458 37.9948 201.031 36.7969 201.031 35.2969C201.031 32.151 202.964 30.3281 206.828 29.8281L210.797 29.3125C210.797 28.7917 210.562 28.3646 210.094 28.0312C209.625 27.6979 208.995 27.5312 208.203 27.5312C206.411 27.5312 204.521 28.0417 202.531 29.0625V24.7344C203.396 24.3594 204.479 24.0521 205.781 23.8125C207.083 23.5729 208.198 23.4531 209.125 23.4531C211.844 23.4531 213.812 24.0365 215.031 25.2031C216.26 26.3594 216.875 28.2969 216.875 31.0156V39.8438H210.797ZM206.859 34.4062C206.859 34.8438 206.995 35.2031 207.266 35.4844C207.547 35.7656 207.943 35.9062 208.453 35.9062C209.151 35.9062 209.714 35.6458 210.141 35.125C210.578 34.6042 210.797 33.9375 210.797 33.125V32.5156L208.547 32.8281C207.422 33.0156 206.859 33.5417 206.859 34.4062Z" fill="#DB0004"/>
</svg>
