<svg width="162" height="35" viewBox="0 0 162 35" fill="none" xmlns="http://www.w3.org/2000/svg">
<path d="M24.7266 24C24.7266 26.2344 24.125 28.1797 22.9219 29.8359C21.7344 31.4922 20.0625 32.7266 17.9062 33.5391C15.75 34.3516 13.1562 34.7578 10.125 34.7578C6.60938 34.7578 3.39062 34.1641 0.46875 32.9766V23.7656C1.875 24.7969 3.42969 25.6328 5.13281 26.2734C6.83594 26.8984 8.42188 27.2109 9.89062 27.2109C11 27.2109 11.8594 27.0156 12.4688 26.625C13.0781 26.2188 13.3828 25.6328 13.3828 24.8672C13.3828 24.3203 13.2266 23.8438 12.9141 23.4375C12.6172 23.0156 12.1562 22.625 11.5312 22.2656C10.9219 21.9062 9.78125 21.4141 8.10938 20.7891C2.70312 18.7109 0 15.3516 0 10.7109C0 7.46094 1.23438 4.86719 3.70312 2.92969C6.17188 0.976563 9.48438 0 13.6406 0C14.8125 0 15.8906 0.046875 16.875 0.140625C17.8594 0.234375 18.75 0.351562 19.5469 0.492188C20.3594 0.632812 21.4922 0.898437 22.9453 1.28906V9.84375C20.1172 8.29688 17.3359 7.52344 14.6016 7.52344C13.4766 7.52344 12.5703 7.73438 11.8828 8.15625C11.1953 8.57812 10.8516 9.15625 10.8516 9.89062C10.8516 10.5938 11.125 11.1797 11.6719 11.6484C12.2344 12.1016 13.3984 12.6953 15.1641 13.4297C18.6484 14.8359 21.1094 16.375 22.5469 18.0469C24 19.7188 24.7266 21.7031 24.7266 24ZM28.8516 34.1719V0.5625H38.9766V34.1719H28.8516ZM77.5547 17.2734C77.5547 20.6484 76.8281 23.6719 75.375 26.3438C73.9219 29 71.8906 31.0703 69.2812 32.5547C66.6719 34.0234 63.75 34.7578 60.5156 34.7578C57.3594 34.7578 54.4844 34.0469 51.8906 32.625C49.3125 31.1875 47.3047 29.1797 45.8672 26.6016C44.4297 24.0078 43.7109 21.0781 43.7109 17.8125C43.7109 14.3906 44.4375 11.3125 45.8906 8.57812C47.3438 5.84375 49.3828 3.73437 52.0078 2.25C54.6328 0.75 57.6172 0 60.9609 0C64.1797 0 67.0547 0.71875 69.5859 2.15625C72.1328 3.57813 74.0938 5.61719 75.4688 8.27344C76.8594 10.9141 77.5547 13.9141 77.5547 17.2734ZM66.8203 17.5547C66.8203 14.7891 66.2891 12.6094 65.2266 11.0156C64.1641 9.42188 62.7109 8.625 60.8672 8.625C58.8516 8.625 57.2812 9.39063 56.1562 10.9219C55.0312 12.4531 54.4688 14.6172 54.4688 17.4141C54.4688 20.1484 55.0234 22.2812 56.1328 23.8125C57.2578 25.3438 58.7812 26.1094 60.7031 26.1094C61.875 26.1094 62.9297 25.7656 63.8672 25.0781C64.8047 24.3906 65.5312 23.4062 66.0469 22.125C66.5625 20.8438 66.8203 19.3203 66.8203 17.5547ZM105.68 24C105.68 26.2344 105.078 28.1797 103.875 29.8359C102.688 31.4922 101.016 32.7266 98.8594 33.5391C96.7031 34.3516 94.1094 34.7578 91.0781 34.7578C87.5625 34.7578 84.3438 34.1641 81.4219 32.9766V23.7656C82.8281 24.7969 84.3828 25.6328 86.0859 26.2734C87.7891 26.8984 89.375 27.2109 90.8438 27.2109C91.9531 27.2109 92.8125 27.0156 93.4219 26.625C94.0312 26.2188 94.3359 25.6328 94.3359 24.8672C94.3359 24.3203 94.1797 23.8438 93.8672 23.4375C93.5703 23.0156 93.1094 22.625 92.4844 22.2656C91.875 21.9062 90.7344 21.4141 89.0625 20.7891C83.6562 18.7109 80.9531 15.3516 80.9531 10.7109C80.9531 7.46094 82.1875 4.86719 84.6562 2.92969C87.125 0.976563 90.4375 0 94.5938 0C95.7656 0 96.8438 0.046875 97.8281 0.140625C98.8125 0.234375 99.7031 0.351562 100.5 0.492188C101.312 0.632812 102.445 0.898437 103.898 1.28906V9.84375C101.07 8.29688 98.2891 7.52344 95.5547 7.52344C94.4297 7.52344 93.5234 7.73438 92.8359 8.15625C92.1484 8.57812 91.8047 9.15625 91.8047 9.89062C91.8047 10.5938 92.0781 11.1797 92.625 11.6484C93.1875 12.1016 94.3516 12.6953 96.1172 13.4297C99.6016 14.8359 102.062 16.375 103.5 18.0469C104.953 19.7188 105.68 21.7031 105.68 24ZM109.805 34.1719V0.5625H130.734V8.48438H119.93V13.3828H130.078V21.3047H119.93V26.25H131.508V34.1719H109.805ZM161.297 33.2578C158.516 34.2578 155.305 34.7578 151.664 34.7578C148.086 34.7578 145 34.0781 142.406 32.7188C139.812 31.3438 137.828 29.3984 136.453 26.8828C135.094 24.3516 134.414 21.4375 134.414 18.1406C134.414 14.5938 135.18 11.4375 136.711 8.67188C138.242 5.90625 140.406 3.77344 143.203 2.27344C146 0.757812 149.219 0 152.859 0C155.766 0 158.578 0.351562 161.297 1.05469V10.4062C160.359 9.84375 159.242 9.40625 157.945 9.09375C156.648 8.78125 155.336 8.625 154.008 8.625C151.258 8.625 149.086 9.41406 147.492 10.9922C145.914 12.5703 145.125 14.7109 145.125 17.4141C145.125 20.1016 145.914 22.2266 147.492 23.7891C149.086 25.3359 151.211 26.1094 153.867 26.1094C156.32 26.1094 158.797 25.4844 161.297 24.2344V33.2578Z" fill="#DB0004"/>
</svg>
